<?xml version="1.0" encoding="UTF-8"?>
<svg version="1.1" xmlns="http://www.w3.org/2000/svg" width="200" height="180">
<path d="M0 0 C4.05194567 0.32150794 6.34837306 1.55763916 9.91015625 3.515625 C17.67350156 7.63186267 25.71340003 10.96765939 33.84765625 14.265625 C65.86839533 27.30710316 65.86839533 27.30710316 69.34765625 34.265625 C72.35617595 66.69078179 72.35617595 66.69078179 66.34765625 74.265625 C62.3568842 77.18989143 58.55580239 79.13290823 53.90234375 80.78125 C52.66959717 81.22380127 51.43685059 81.66635254 50.16674805 82.12231445 C49.52248871 82.34972321 48.87822937 82.57713196 48.21444702 82.81143188 C44.8391423 84.00476322 41.47509567 85.22917634 38.109375 86.44921875 C37.10832481 86.81100471 37.10832481 86.81100471 36.08705139 87.18009949 C18.61735587 93.04703924 18.61735587 93.04703924 2.80859375 102.234375 C1.34765625 103.265625 1.34765625 103.265625 -0.65234375 103.265625 C-0.54208219 98.89012358 -0.41154091 94.51545258 -0.27734375 90.140625 C-0.24640625 88.903125 -0.21546875 87.665625 -0.18359375 86.390625 C-0.14492187 85.19179687 -0.10625 83.99296875 -0.06640625 82.7578125 C-0.0192749 81.10821533 -0.0192749 81.10821533 0.02880859 79.42529297 C0.4528611 75.22308199 0.84650662 71.55450914 4.16918945 68.70166016 C4.90484131 68.32315918 5.64049316 67.9446582 6.3984375 67.5546875 C7.23270264 67.11809814 8.06696777 66.68150879 8.92651367 66.23168945 C9.82861572 65.78913818 10.73071777 65.34658691 11.66015625 64.890625 C12.58481689 64.42164795 13.50947754 63.9526709 14.4621582 63.46948242 C39.07967553 51.265625 39.07967553 51.265625 46.34765625 51.265625 C46.34765625 50.605625 46.34765625 49.945625 46.34765625 49.265625 C45.77732666 49.09836914 45.20699707 48.93111328 44.61938477 48.75878906 C37.46463558 46.63875798 30.36310984 44.3790318 23.28515625 42.015625 C22.16560547 41.65855469 21.04605469 41.30148438 19.89257812 40.93359375 C12.59263862 38.47601881 7.0777801 35.42929732 1.34765625 30.265625 C-1.54872566 31.62820065 -4.04482082 33.2149689 -6.63671875 35.0859375 C-12.05503981 38.73279931 -17.79308097 40.90844686 -23.90234375 43.140625 C-25.03462402 43.56625732 -26.1669043 43.99188965 -27.33349609 44.43041992 C-31.80791854 46.11060225 -36.29200389 47.76405549 -40.77636719 49.41748047 C-42.71243714 50.1327348 -44.64738617 50.85103256 -46.58105469 51.57275391 C-48.31807399 52.22044002 -50.05812467 52.86008205 -51.80175781 53.48974609 C-56.58300229 55.26879108 -60.66435496 57.35893514 -64.84130859 60.30151367 C-66.65234375 61.265625 -66.65234375 61.265625 -70.65234375 61.265625 C-70.74004758 57.41160371 -70.7929711 53.55784209 -70.83984375 49.703125 C-70.86498047 48.61708984 -70.89011719 47.53105469 -70.91601562 46.41210938 C-71.03063208 33.84250455 -71.03063208 33.84250455 -66.17797852 28.70458984 C-60.65193481 24.0253326 -54.01527255 21.84862764 -47.25372314 19.51153564 C-45.24425128 18.81668198 -43.24150349 18.10493663 -41.23974609 17.38818359 C-38.5899034 16.43998325 -35.93841445 15.49670479 -33.28515625 14.55810547 C-28.59463837 12.88931504 -23.9272181 11.16923494 -19.27734375 9.390625 C-18.60268066 9.14127197 -17.92801758 8.89191895 -17.23291016 8.63500977 C-11.57046129 6.45875394 -5.68036279 0.56887286 0 0 Z " fill="#fff" transform="translate(100.65234375,18.734375)"/>
<path d="M0 0 C0.66 0 1.32 0 2 0 C3.47844164 5.07306954 3.2240243 10.19365534 3.25 15.4375 C3.270625 16.47455078 3.29125 17.51160156 3.3125 18.58007812 C3.36329195 28.46546101 3.36329195 28.46546101 0 32 C-2.32468737 33.47239996 -4.46516784 34.65767851 -6.9375 35.8125 C-7.62900146 36.14652832 -8.32050293 36.48055664 -9.03295898 36.82470703 C-19.96329629 42.00179021 -31.29513817 46.88917766 -43 50 C-40.71002696 52.28997304 -39.42225538 52.60465162 -36.3359375 53.4453125 C-35.38565674 53.71375977 -34.43537598 53.98220703 -33.45629883 54.25878906 C-32.43947021 54.54463867 -31.4226416 54.83048828 -30.375 55.125 C-19.8687448 58.18976831 -8.4147888 61.70232882 0.17578125 68.796875 C1.9168061 70.21086593 1.9168061 70.21086593 4.0078125 69.85546875 C6.22291944 68.90427577 7.93800519 67.74828798 9.875 66.3125 C20.66514292 58.91318336 34.00384771 55.06716248 46.27270508 50.74731445 C58.84277635 46.33233233 58.84277635 46.33233233 70.11450195 39.35327148 C72 38 72 38 74 38 C74.05872928 41.8124338 74.09383916 45.62474906 74.125 49.4375 C74.14175781 50.50677734 74.15851563 51.57605469 74.17578125 52.67773438 C74.27369933 68.68734026 74.27369933 68.68734026 70.5324707 72.49267578 C64.76721451 76.41670376 57.83498954 78.49814269 51.3125 80.8125 C48.90218813 81.68967668 46.49203367 82.56728598 44.08203125 83.4453125 C40.67982241 84.67420706 37.27671879 85.90054541 33.87255859 87.12402344 C23.47982928 90.87700168 14.00929049 94.4838465 5 101 C4.01 101.495 4.01 101.495 3 102 C1.17064615 100.98159682 -0.61135474 99.87837757 -2.375 98.75 C-9.48042874 94.43779338 -17.00544253 91.47077674 -24.75 88.5 C-33.02304365 85.3247594 -41.27173037 82.15321172 -49.375 78.5625 C-50.07463867 78.25699219 -50.77427734 77.95148438 -51.49511719 77.63671875 C-56.84836637 75.2326764 -61.69508173 72.95737741 -65 68 C-65.23228154 65.15746616 -65.35202336 62.41532759 -65.37109375 59.5703125 C-65.38012222 58.742966 -65.3891507 57.91561951 -65.39845276 57.0632019 C-65.41295615 55.31316751 -65.42184222 53.56307888 -65.42553711 51.81298828 C-65.43742738 49.1413183 -65.4866028 46.47196327 -65.53710938 43.80078125 C-65.54657468 42.09896959 -65.5538092 40.39714376 -65.55859375 38.6953125 C-65.58789223 37.50133347 -65.58789223 37.50133347 -65.61778259 36.28323364 C-65.58416417 32.13064825 -65.38078901 30.48635591 -62.73852539 27.11157227 C-55.13147146 21.24606371 -46.02212767 18.4429804 -37.02105713 15.37738037 C-17.15519998 9.97658837 -17.15519998 9.97658837 0 0 Z " fill="#fff" transform="translate(96,61)"/>
<path d="M0 0 C0.66 0 1.32 0 2 0 C2.34294293 3.99934222 2.6296638 7.99856502 2.86669922 12.00561523 C2.95482292 13.36539948 3.05777157 14.72431253 3.17626953 16.08178711 C4.13217751 27.2054513 4.13217751 27.2054513 1.51147461 31.359375 C-2.79652897 35.33713541 -8.01529923 37.77051973 -13.4375 39.875 C-14.23953857 40.20105225 -15.04157715 40.52710449 -15.86791992 40.86303711 C-23.83646742 44.0521167 -31.94816424 46.8559604 -40.0456543 49.69677734 C-47.12079319 52.21494475 -53.74662458 55.07936779 -60.328125 58.6875 C-62.94596995 59.97345892 -65.1499808 60.48940636 -68 61 C-68.08770383 57.14597871 -68.14062735 53.29221709 -68.1875 49.4375 C-68.21263672 48.35146484 -68.23777344 47.26542969 -68.26367188 46.14648438 C-68.37828833 33.57687955 -68.37828833 33.57687955 -63.52563477 28.43896484 C-57.99959106 23.7597076 -51.3629288 21.58300264 -44.60137939 19.24591064 C-42.59190753 18.55105698 -40.58915974 17.83931163 -38.58740234 17.12255859 C-35.93755965 16.17435825 -33.2860707 15.23107979 -30.6328125 14.29248047 C-25.94229462 12.62369004 -21.27487435 10.90360994 -16.625 9.125 C-15.95033691 8.87564697 -15.27567383 8.62629395 -14.58056641 8.36938477 C-9.49973607 6.4166631 -3.89501019 3.89501019 0 0 Z " fill="#fff" transform="translate(98,19)"/>
<path d="M0 0 C0.66 0 1.32 0 2 0 C3.47844164 5.07306954 3.2240243 10.19365534 3.25 15.4375 C3.270625 16.47455078 3.29125 17.51160156 3.3125 18.58007812 C3.36329195 28.46546101 3.36329195 28.46546101 0 32 C-2.32468737 33.47239996 -4.46516784 34.65767851 -6.9375 35.8125 C-7.62900146 36.14652832 -8.32050293 36.48055664 -9.03295898 36.82470703 C-19.96329629 42.00179021 -31.29513817 46.88917766 -43 50 C-43 50.66 -43 51.32 -43 52 C-44.11375 52.20625 -45.2275 52.4125 -46.375 52.625 C-53.41604473 54.36646836 -59.28798673 58.67993316 -65 63 C-65.12394421 58.39194479 -65.21449675 53.78486719 -65.2746582 49.17553711 C-65.29974547 47.60895886 -65.33382415 46.04249701 -65.37719727 44.47631836 C-65.43811226 42.21959691 -65.46626499 39.96442706 -65.48828125 37.70703125 C-65.51408768 37.01100296 -65.5398941 36.31497467 -65.56648254 35.59785461 C-65.56864983 31.80847779 -65.13315396 30.16675571 -62.74291992 27.17333984 C-55.20957981 21.20433284 -46.01783465 18.44151827 -37.02105713 15.37738037 C-17.15519998 9.97658837 -17.15519998 9.97658837 0 0 Z " fill="#fff" transform="translate(96,61)"/>
<path d="M0 0 C5.02062066 0.54055622 8.90041452 2.26749302 13.29296875 4.6171875 C18.97250912 7.55468838 24.68639088 10.23211265 30.61328125 12.6328125 C31.3286203 12.92267029 32.04395935 13.21252808 32.78097534 13.51116943 C34.95628127 14.38720328 37.13387602 15.25725331 39.3125 16.125 C66.50312232 26.95559583 66.50312232 26.95559583 70 34 C70.0625 36 70.0625 36 69 38 C67.03117124 39.87278833 65.18221717 41.41682284 63 43 C62.39800781 43.46019531 61.79601562 43.92039063 61.17578125 44.39453125 C55.95868588 48.06660446 51.38251508 49.39009773 45 49 C39.95833202 47.78740631 35.1349242 46.16830569 30.26855469 44.38793945 C28.01399152 43.56759097 25.74762025 42.7909082 23.4765625 42.01757812 C14.28184907 38.7883623 7.00138431 35.00138431 0 28 C-0.08767112 25.92737924 -0.10695873 23.85179706 -0.09765625 21.77734375 C-0.09443359 20.51728516 -0.09121094 19.25722656 -0.08789062 17.95898438 C-0.07953403 16.61848891 -0.07106907 15.27799412 -0.0625 13.9375 C-0.0574866 12.59310058 -0.05292342 11.2486994 -0.04882812 9.90429688 C-0.03699488 6.60282059 -0.02050971 3.30143197 0 0 Z " fill="#fff" transform="translate(100,19)"/>
<path d="M0 0 C1.00732178 0.31106689 2.01464355 0.62213379 3.05249023 0.94262695 C11.85534319 3.76298568 20.00338631 7.37740448 28 12 C29.04551025 12.55115479 30.09102051 13.10230957 31.16821289 13.67016602 C34 16 34 16 34.68115234 19.29980469 C34.634021 21.21647949 34.634021 21.21647949 34.5859375 23.171875 C34.57744781 23.8542926 34.56895813 24.53671021 34.56021118 25.23980713 C34.52672057 27.4115038 34.45147242 29.57943383 34.375 31.75 C34.34489374 33.22520663 34.31751905 34.7004717 34.29296875 36.17578125 C34.22695085 39.78507044 34.12346917 43.39216742 34 47 C33.33863037 46.62343262 32.67726074 46.24686523 31.99584961 45.85888672 C25.3416351 42.14009736 18.62124548 38.99064518 11.5625 36.125 C10.52770508 35.69791748 9.49291016 35.27083496 8.42675781 34.83081055 C3.44192581 32.78076976 -1.55659414 30.77260027 -6.58203125 28.82421875 C-30.69296389 19.46055417 -30.69296389 19.46055417 -35 13 C-35.34375 10.53515625 -35.34375 10.53515625 -35 8 C-25.41652091 -4.25971661 -13.63925281 -4.27057862 0 0 Z " fill="#fff" transform="translate(66,116)"/>
</svg>
